<svg width="429" height="150" viewBox="0 0 429 150" fill="none" xmlns="http://www.w3.org/2000/svg">
<path d="M190.36 45.304V75.064C190.36 76.3867 190.403 77.432 190.488 78.2C190.573 78.968 190.808 79.5227 191.192 79.864C191.576 80.2053 192.195 80.4613 193.048 80.632C193.901 80.76 195.117 80.888 196.696 81.016C196.824 81.6987 196.824 82.3813 196.696 83.064C195.843 83.064 194.797 83.0427 193.56 83C192.323 83 191.085 83 189.848 83C188.653 82.9573 187.651 82.936 186.84 82.936C186.029 82.936 185.005 82.9573 183.768 83C182.573 83 181.357 83 180.12 83C178.925 83.0427 177.859 83.064 176.92 83.064C176.792 82.424 176.792 81.7413 176.92 81.016C178.968 80.8027 180.44 80.6107 181.336 80.44C182.232 80.2267 182.787 79.8 183 79.16C183.213 78.52 183.32 77.432 183.32 75.896V46.136C183.32 44.344 183.213 43.064 183 42.296C182.787 41.528 182.232 41.0373 181.336 40.824C180.44 40.568 178.968 40.3547 176.92 40.184C176.835 39.544 176.835 38.8613 176.92 38.136C177.816 38.136 178.883 38.1573 180.12 38.2C181.4 38.2 182.659 38.2213 183.896 38.264C185.133 38.264 186.157 38.264 186.968 38.264C187.779 38.264 188.781 38.264 189.976 38.264C191.171 38.2213 192.387 38.2 193.624 38.2C194.861 38.1573 195.885 38.136 196.696 38.136C196.824 38.776 196.824 39.4587 196.696 40.184C194.691 40.3547 193.24 40.5467 192.344 40.76C191.448 40.9733 190.893 41.4 190.68 42.04C190.467 42.68 190.36 43.768 190.36 45.304ZM238.432 83.448L209.952 46.072V73.464C209.952 75.0853 209.994 76.344 210.08 77.24C210.165 78.0933 210.421 78.7547 210.848 79.224C211.274 79.6507 211.936 80.0133 212.832 80.312C213.728 80.6107 215.008 80.8453 216.672 81.016C216.757 81.6987 216.757 82.3813 216.672 83.064C215.392 83.064 213.962 83.0427 212.384 83C210.848 82.9573 209.546 82.936 208.48 82.936C207.413 82.936 206.09 82.9573 204.512 83C202.976 83.0427 201.589 83.064 200.352 83.064C200.224 82.424 200.224 81.7413 200.352 81.016C201.888 80.8027 203.082 80.6107 203.936 80.44C204.789 80.2267 205.408 79.928 205.792 79.544C206.176 79.1173 206.41 78.4987 206.496 77.688C206.624 76.8773 206.688 75.7467 206.688 74.296V48.056C206.688 46.3493 206.624 45.0053 206.496 44.024C206.41 43.0427 206.133 42.3173 205.664 41.848C205.237 41.336 204.554 40.9733 203.616 40.76C202.72 40.504 201.461 40.2907 199.84 40.12C199.797 39.48 199.797 38.8187 199.84 38.136C201.162 38.136 202.57 38.1573 204.064 38.2C205.557 38.2427 207.05 38.264 208.544 38.264C208.757 38.264 209.333 38.264 210.272 38.264C211.253 38.264 212.106 38.2427 212.832 38.2L238.816 72.376V47.8C238.816 46.1787 238.773 44.92 238.688 44.024C238.645 43.128 238.389 42.4667 237.92 42.04C237.024 41.1013 234.869 40.504 231.456 40.248C231.328 39.5227 231.328 38.84 231.456 38.2C232.266 38.2 233.226 38.2213 234.336 38.264C235.488 38.264 236.597 38.2853 237.664 38.328C238.73 38.328 239.605 38.328 240.288 38.328C241.354 38.328 242.677 38.3067 244.256 38.264C245.834 38.2213 247.242 38.2 248.48 38.2C248.565 38.84 248.565 39.5013 248.48 40.184C246.432 40.44 244.96 40.7387 244.064 41.08C243.168 41.3787 242.613 41.9547 242.4 42.808C242.186 43.6613 242.08 45.048 242.08 46.968V83.128C241.653 83.2133 241.077 83.2773 240.352 83.32C239.626 83.4053 238.986 83.448 238.432 83.448ZM251.358 83.064C251.272 82.424 251.272 81.7413 251.358 81.016C253.406 80.8027 254.878 80.6107 255.774 80.44C256.67 80.2267 257.224 79.8 257.438 79.16C257.651 78.52 257.758 77.432 257.758 75.896V46.136C257.758 44.344 257.651 43.064 257.438 42.296C257.224 41.528 256.67 41.0373 255.774 40.824C254.878 40.568 253.406 40.3547 251.358 40.184C251.272 39.544 251.272 38.8613 251.358 38.136C252.211 38.136 253.256 38.1573 254.494 38.2C255.774 38.2 257.032 38.2213 258.27 38.264C259.507 38.264 260.51 38.264 261.278 38.264C262.088 38.264 263.07 38.264 264.222 38.264C265.416 38.2213 266.611 38.2 267.806 38.2C269.043 38.1573 270.088 38.136 270.942 38.136C271.07 38.776 271.07 39.4587 270.942 40.184C268.979 40.3547 267.571 40.5467 266.718 40.76C265.864 40.9733 265.331 41.4 265.118 42.04C264.904 42.68 264.798 43.768 264.798 45.304V61.112L279.518 45.496C281.139 43.7467 281.95 42.552 281.95 41.912C281.95 41.3573 281.566 40.9733 280.798 40.76C280.03 40.504 278.771 40.312 277.022 40.184C276.936 39.4587 276.936 38.776 277.022 38.136C277.747 38.136 278.664 38.1573 279.774 38.2C280.883 38.2 281.992 38.2213 283.102 38.264C284.211 38.264 285.107 38.264 285.79 38.264C287.155 38.264 288.435 38.2427 289.63 38.2C290.867 38.1573 292.211 38.136 293.662 38.136C293.747 38.8187 293.747 39.5013 293.662 40.184C292.339 40.312 291.23 40.4827 290.334 40.696C289.48 40.9093 288.648 41.272 287.838 41.784C287.07 42.296 286.195 43.0213 285.214 43.96C284.232 44.8987 282.995 46.136 281.502 47.672L272.094 57.4L285.278 74.744C286.302 76.0667 287.155 77.1333 287.838 77.944C288.52 78.712 289.182 79.3093 289.822 79.736C290.504 80.12 291.272 80.3973 292.126 80.568C293.022 80.7387 294.152 80.888 295.518 81.016C295.646 81.6987 295.646 82.3813 295.518 83.064C294.707 83.064 293.747 83.0427 292.638 83C291.528 83 290.44 83 289.374 83C288.307 82.9573 287.39 82.936 286.622 82.936C286.152 82.936 285.534 82.9573 284.766 83C284.04 83 283.379 83 282.782 83L267.422 62.328L264.798 65.208V75.064C264.798 76.856 264.904 78.1573 265.118 78.968C265.331 79.736 265.864 80.2267 266.718 80.44C267.614 80.6533 269.022 80.8453 270.942 81.016C271.07 81.6987 271.07 82.3813 270.942 83.064C270.088 83.064 269.043 83.0427 267.806 83C266.611 83 265.395 83 264.158 83C262.963 82.9573 261.96 82.936 261.15 82.936C260.339 82.936 259.336 82.9573 258.142 83C256.947 83 255.731 83 254.494 83C253.299 83.0427 252.254 83.064 251.358 83.064ZM296.084 38.136C296.937 38.136 297.961 38.1573 299.156 38.2C300.393 38.2 301.609 38.2213 302.804 38.264C304.041 38.264 305.065 38.264 305.876 38.264C306.686 38.264 307.689 38.264 308.884 38.264C310.121 38.2213 311.358 38.2 312.596 38.2C313.833 38.1573 314.878 38.136 315.732 38.136C315.86 38.776 315.86 39.4373 315.732 40.12C313.769 40.2907 312.34 40.4827 311.444 40.696C310.548 40.9093 309.993 41.336 309.78 41.976C309.566 42.616 309.46 43.704 309.46 45.24V66.168C309.46 70.9467 310.484 74.5093 312.532 76.856C314.622 79.16 317.652 80.312 321.62 80.312C325.801 80.312 328.958 79.0107 331.092 76.408C333.225 73.8053 334.292 69.7733 334.292 64.312V46.776C334.292 45.2827 334.228 44.1307 334.1 43.32C334.014 42.4667 333.737 41.848 333.268 41.464C332.841 41.08 332.18 40.824 331.284 40.696C330.388 40.5253 329.129 40.3547 327.507 40.184C327.38 39.544 327.38 38.8827 327.507 38.2C328.66 38.2 330.046 38.2213 331.668 38.264C333.289 38.3067 334.59 38.328 335.572 38.328C336.638 38.328 337.961 38.3067 339.54 38.264C341.161 38.2213 342.569 38.2 343.764 38.2C343.892 38.84 343.892 39.5013 343.764 40.184C341.801 40.3973 340.372 40.6107 339.476 40.824C338.58 41.0373 338.004 41.5067 337.748 42.232C337.534 42.9573 337.428 44.1947 337.428 45.944V65.656C337.428 71.3307 335.956 75.768 333.012 78.968C330.068 82.1253 325.609 83.704 319.636 83.704C316.222 83.704 313.214 83.1493 310.612 82.04C308.052 80.9307 306.046 79.224 304.595 76.92C303.145 74.5733 302.42 71.6293 302.42 68.088V46.072C302.42 44.28 302.313 43 302.1 42.232C301.886 41.464 301.332 40.9733 300.436 40.76C299.54 40.504 298.089 40.2907 296.084 40.12C295.956 39.48 295.956 38.8187 296.084 38.136ZM346.362 83.064C346.277 82.424 346.277 81.7413 346.362 81.016C348.367 80.8027 349.797 80.6107 350.65 80.44C351.503 80.2267 352.037 79.8 352.25 79.16C352.463 78.4773 352.57 77.3893 352.57 75.896V46.136C352.57 44.344 352.463 43.064 352.25 42.296C352.037 41.528 351.482 41.0373 350.586 40.824C349.733 40.568 348.325 40.3547 346.362 40.184C346.277 39.544 346.277 38.8613 346.362 38.136C347.258 38.136 348.303 38.1573 349.498 38.2C350.735 38.2 351.951 38.2213 353.146 38.264C354.341 38.264 355.322 38.264 356.09 38.264C356.901 38.264 357.903 38.264 359.098 38.264C360.335 38.2213 361.573 38.2 362.81 38.2C364.09 38.1573 365.135 38.136 365.946 38.136C366.074 38.776 366.074 39.4587 365.946 40.184C363.941 40.3547 362.49 40.5467 361.594 40.76C360.698 40.9733 360.143 41.4 359.93 42.04C359.717 42.68 359.61 43.768 359.61 45.304V75.064C359.61 76.5147 359.61 77.688 359.61 78.584C359.653 79.4373 359.695 80.0133 359.738 80.312H368.826C372.367 80.312 374.991 79.5227 376.698 77.944C378.106 76.5787 379.578 74.1893 381.114 70.776C381.797 70.648 382.458 70.648 383.098 70.776C382.586 73.3787 382.159 75.7253 381.818 77.816C381.519 79.864 381.263 81.592 381.05 83C376.911 83 372.773 83 368.634 83C364.538 82.9573 360.421 82.936 356.282 82.936C355.471 82.936 354.447 82.9573 353.21 83C351.973 83 350.735 83 349.498 83C348.261 83.0427 347.215 83.064 346.362 83.064ZM381.834 83.064C381.749 82.3813 381.749 81.6987 381.834 81.016C383.029 80.888 383.989 80.7387 384.715 80.568C385.44 80.3973 386.059 80.0987 386.571 79.672C387.083 79.2027 387.573 78.52 388.043 77.624C388.512 76.6853 389.067 75.384 389.707 73.72L403.531 38.264C404 38.0933 404.555 37.9653 405.195 37.88C405.877 37.7947 406.453 37.752 406.923 37.752L420.683 74.296C421.28 75.832 421.771 77.048 422.155 77.944C422.539 78.7973 422.965 79.416 423.435 79.8C423.904 80.184 424.501 80.4613 425.227 80.632C425.952 80.76 426.955 80.888 428.235 81.016C428.32 81.6987 428.32 82.3813 428.235 83.064C426.741 83.064 425.205 83.0427 423.627 83C422.048 82.9573 420.469 82.936 418.891 82.936C417.269 82.936 415.627 82.9573 413.963 83C412.341 83.0427 410.72 83.064 409.099 83.064C408.971 82.424 408.971 81.7413 409.099 81.016C411.189 80.8027 412.64 80.6107 413.451 80.44C414.261 80.2267 414.667 79.7147 414.667 78.904C414.667 78.5627 414.603 78.1787 414.475 77.752C414.347 77.3253 414.176 76.792 413.963 76.152L410.315 66.296H395.915L392.715 75.128C392.416 75.9387 392.181 76.6213 392.01 77.176C391.883 77.688 391.819 78.1573 391.819 78.584C391.819 79.5227 392.245 80.12 393.099 80.376C393.995 80.5893 395.445 80.8027 397.451 81.016C397.536 81.7413 397.536 82.424 397.451 83.064C396 83.064 394.571 83.0427 393.163 83C391.755 82.9573 390.325 82.936 388.875 82.936C387.68 82.936 386.528 82.9573 385.419 83C384.309 83.0427 383.114 83.064 381.834 83.064ZM396.875 63.608H409.355L403.083 46.584L396.875 63.608Z" fill="#3384EF"/>
<path d="M243.761 122V107.455H252.483V109.017H245.523V113.932H251.83V115.494H245.523V122H243.761ZM257.261 107.455V122H255.5V107.455H257.261ZM272.327 107.455V122H270.622L262.696 110.58H262.554V122H260.793V107.455H262.497L270.452 118.903H270.594V107.455H272.327ZM276.448 122H274.601L279.942 107.455H281.76L287.101 122H285.255L280.908 109.756H280.794L276.448 122ZM277.13 116.318H284.573V117.881H277.13V116.318ZM300.901 107.455V122H299.196L291.27 110.58H291.128V122H289.367V107.455H291.071L299.026 118.903H299.168V107.455H300.901ZM316.13 112H314.369C314.264 111.493 314.082 111.048 313.822 110.665C313.566 110.281 313.254 109.959 312.884 109.699C312.52 109.434 312.115 109.235 311.67 109.102C311.225 108.97 310.761 108.903 310.278 108.903C309.397 108.903 308.599 109.126 307.884 109.571C307.174 110.016 306.608 110.672 306.187 111.538C305.77 112.405 305.562 113.468 305.562 114.727C305.562 115.987 305.77 117.05 306.187 117.916C306.608 118.783 307.174 119.438 307.884 119.884C308.599 120.329 309.397 120.551 310.278 120.551C310.761 120.551 311.225 120.485 311.67 120.352C312.115 120.22 312.52 120.023 312.884 119.763C313.254 119.498 313.566 119.173 313.822 118.79C314.082 118.402 314.264 117.956 314.369 117.455H316.13C315.997 118.198 315.756 118.863 315.406 119.45C315.055 120.037 314.62 120.537 314.099 120.949C313.578 121.356 312.993 121.666 312.344 121.879C311.701 122.092 311.012 122.199 310.278 122.199C309.037 122.199 307.934 121.896 306.968 121.29C306.002 120.684 305.242 119.822 304.688 118.705C304.134 117.587 303.857 116.261 303.857 114.727C303.857 113.193 304.134 111.867 304.688 110.75C305.242 109.633 306.002 108.771 306.968 108.165C307.934 107.559 309.037 107.256 310.278 107.256C311.012 107.256 311.701 107.362 312.344 107.575C312.993 107.788 313.578 108.101 314.099 108.513C314.62 108.92 315.055 109.417 315.406 110.004C315.756 110.587 315.997 111.252 316.13 112ZM320.738 107.455V122H318.976V107.455H320.738ZM324.866 122H323.019L328.36 107.455H330.178L335.519 122H333.673L329.326 109.756H329.212L324.866 122ZM325.548 116.318H332.991V117.881H325.548V116.318ZM337.785 122V107.455H339.546V120.438H346.308V122H337.785ZM356.989 111.091C356.904 110.371 356.558 109.812 355.952 109.415C355.346 109.017 354.603 108.818 353.722 108.818C353.078 108.818 352.515 108.922 352.032 109.131C351.554 109.339 351.18 109.625 350.91 109.99C350.645 110.355 350.512 110.769 350.512 111.233C350.512 111.621 350.604 111.955 350.789 112.234C350.978 112.509 351.22 112.739 351.513 112.923C351.807 113.103 352.115 113.252 352.437 113.371C352.759 113.484 353.055 113.577 353.325 113.648L354.802 114.045C355.181 114.145 355.602 114.282 356.066 114.457C356.535 114.633 356.982 114.872 357.408 115.175C357.839 115.473 358.194 115.857 358.474 116.325C358.753 116.794 358.893 117.369 358.893 118.051C358.893 118.837 358.687 119.547 358.275 120.182C357.868 120.816 357.271 121.321 356.485 121.695C355.704 122.069 354.754 122.256 353.637 122.256C352.595 122.256 351.693 122.088 350.931 121.751C350.174 121.415 349.577 120.946 349.141 120.345C348.71 119.744 348.467 119.045 348.41 118.25H350.228C350.275 118.799 350.46 119.254 350.782 119.614C351.109 119.969 351.521 120.234 352.018 120.409C352.52 120.58 353.059 120.665 353.637 120.665C354.309 120.665 354.913 120.556 355.448 120.338C355.983 120.116 356.407 119.808 356.719 119.415C357.032 119.017 357.188 118.553 357.188 118.023C357.188 117.54 357.053 117.147 356.783 116.844C356.513 116.541 356.158 116.295 355.718 116.105C355.278 115.916 354.802 115.75 354.29 115.608L352.501 115.097C351.364 114.77 350.465 114.304 349.802 113.697C349.139 113.091 348.808 112.298 348.808 111.318C348.808 110.504 349.028 109.794 349.468 109.188C349.913 108.577 350.51 108.103 351.258 107.767C352.011 107.426 352.851 107.256 353.779 107.256C354.717 107.256 355.55 107.424 356.279 107.76C357.008 108.091 357.586 108.546 358.012 109.124C358.443 109.701 358.67 110.357 358.694 111.091H356.989Z" fill="#30AFE3"/>
<rect width="150" height="150" rx="20" fill="#3384EF"/>
<rect x="24" y="78" width="25" height="40" fill="white"/>
<rect x="62" y="58" width="25" height="60" fill="white"/>
<rect x="100" y="38" width="25" height="80" fill="white"/>
</svg>
